<?xml version="1.0" encoding="UTF-8" standalone="no"?>
<svg
   xmlns:dc="http://purl.org/dc/elements/1.1/"
   xmlns:cc="http://creativecommons.org/ns#"
   xmlns:rdf="http://www.w3.org/1999/02/22-rdf-syntax-ns#"
   xmlns:svg="http://www.w3.org/2000/svg"
   xmlns="http://www.w3.org/2000/svg"
   version="1.1"
   id="svg10919"
   viewBox="0 0 900 1000"
   height="1000"
   width="900">
  <defs
     id="defs10921" />
  <metadata
     id="metadata10924">
    <rdf:RDF>
      <cc:Work
         rdf:about="">
        <dc:format>image/svg+xml</dc:format>
        <dc:type
           rdf:resource="http://purl.org/dc/dcmitype/StillImage" />
        <dc:title></dc:title>
      </cc:Work>
    </rdf:RDF>
  </metadata>
  <g
     transform="translate(0,-52.362183)"
     id="layer1">
    <g
       style="fill:#333333;fill-opacity:1"
       transform="matrix(12.360189,0,0,-12.360189,557.54037,950.70635)"
       id="g1616">
      <path
         id="path1618"
         style="fill:#333333;fill-opacity:1;fill-rule:nonzero;stroke:none"
         d="m 0,0 0.111,-0.305 -0.346,-0.221 c 0,0 -0.416,0.346 -0.748,0.111 -0.332,-0.236 -0.277,-0.637 -0.277,-0.637 l -0.429,-0.277 -14.012,25.407 0.36,0.277 1.357,0.65 0.346,0.111 L 0,0 Z m -17.986,34.559 -0.457,-0.222 c -0.47,-0.221 -0.401,-0.553 -0.401,-0.553 l -0.346,-0.056 -16.934,31.721 -0.207,0.471 0.124,0.11 0.457,0.167 c 0.236,-0.097 0.443,-0.083 0.776,0.069 0.332,0.152 0.318,0.54 0.318,0.54 l 0.443,0.152 0.346,-0.595 16.629,-31.61 -0.36,-0.305 c -0.166,0.166 -0.388,0.111 -0.388,0.111 M 23.25,44.673 c 0.094,4.351 -3.115,5.244 -3.115,5.244 l -1.36,-0.675 -0.187,-0.27 -1.039,-0.508 -0.197,0.041 -4.517,-2.274 -0.073,-0.249 -1.235,-1.464 -1.091,-0.561 c -0.197,0.031 -0.415,-0.073 -0.415,-0.073 -0.052,0.104 -0.146,0.197 -0.146,0.197 l 1.132,0.686 0.073,0.494 -0.696,1.335 -0.176,0 -2.005,3.935 -0.187,0.09 -2.057,3.922 -0.178,0.06 -2.131,4.04 -0.109,0.083 -2.178,4.084 -2.599,-0.764 2.139,-4.33 0.042,-0.218 2.077,-4.154 0.2,-0.021 1.935,-4.06 0,-0.145 1.134,-2.16 1,-2.004 0.15,-0.052 0.745,-1.527 0.367,-0.145 0.791,0.509 -0.113,-0.405 C 8.888,43.251 8.286,42.419 8.286,42.419 l -0.477,0.177 -0.685,0 -0.395,-0.4 L 6.366,41.49 5.421,40.678 C 4.434,40.688 3.894,39.851 3.894,39.851 L 2.949,39.131 2.503,38.927 2.285,39.043 c 0,0 -1.423,0.437 -1.465,0.448 -0.041,0.01 -0.799,0.125 -0.799,0.125 L -0.343,39.46 -0.582,39.17 -0.717,39.201 -1.921,38.245 -2.212,38.1 c -0.073,0.114 -0.239,0.062 -0.239,0.062 L -5.13,36.75 -5.068,36.449 -5.95,36.023 c -0.239,-0.114 -0.249,-0.228 -0.249,-0.228 l -0.302,-0.135 -1.007,1.942 0.74,0.467 -2.075,3.801 0,0.145 -1.955,3.801 -0.073,0.041 -2.181,4.092 -3.905,-1.724 2.123,-4.164 0.138,-0.031 2.078,-4.082 0.125,-0.062 2.056,-4.081 0.956,0.509 0.997,-1.921 -0.467,-0.291 -0.52,-0.156 -0.498,-0.155 -1.111,-0.572 c -0.364,-0.27 -0.291,-0.623 -0.291,-0.623 l -0.488,-0.207 -0.561,-0.239 -0.28,-0.436 -1.225,-0.239 -0.291,-0.332 -0.499,0.135 -0.124,0.311 -0.582,0.187 -0.27,-0.239 -0.675,0.436 0.063,0.255 -0.135,0.254 -0.156,0.104 -0.779,1.506 0.405,0.457 4.133,2.284 -0.042,0.322 -0.155,0.332 -0.198,0.146 -15.867,30.384 -0.301,0.727 -0.239,0.125 -4.662,-1.62 -0.623,-0.187 c -0.831,0.031 -1.049,-0.42 -1.049,-0.42 l -0.333,-0.046 -0.155,0 -4.891,-2.047 c 0,0 0.072,-0.496 0.093,-0.537 0.021,-0.042 0.229,-0.438 0.229,-0.438 l 17.331,-32.275 0.405,-0.099 1.963,1.025 c 0.176,-0.218 0.342,-0.23 0.342,-0.23 -0.041,-0.373 0.353,-0.54 0.353,-0.54 l 0.385,-0.842 -0.073,-0.311 -0.312,-0.644 -0.56,-0.53 -0.603,-0.322 -0.124,0.208 -0.966,-0.457 c -0.125,-0.094 -0.021,-0.291 -0.021,-0.291 l -0.477,-0.322 -0.302,-0.156 -0.02,-0.197 -0.499,-0.311 c -0.249,-0.353 -0.145,-0.852 -0.145,-0.852 l -0.146,-0.031 c -0.332,0.332 -0.685,0.363 -0.685,0.363 l -0.436,-0.072 c -0.561,-0.104 -1.07,-0.675 -1.07,-0.675 l -7.611,-3.853 -0.312,0.125 -0.322,0.01 -0.218,-0.208 -0.135,-0.394 -0.166,-0.27 c -0.332,-0.53 -0.114,-1.61 -0.114,-1.61 0,0 -0.177,-0.135 -0.385,-0.259 -0.207,-0.125 -0.488,-0.623 -0.488,-0.623 -0.851,0.155 -0.747,-0.717 -0.747,-0.717 -0.478,-0.145 -0.769,-0.54 -0.769,-0.54 -0.29,-1.506 1.091,-2.046 1.091,-2.046 l 0.322,0.083 0.342,0.156 0.312,0.27 0.862,0.291 0.083,-0.208 -0.146,-0.322 c 0.561,-0.28 0.821,0.208 0.821,0.208 l -0.218,0.229 -0.073,0.207 0.488,0.177 c 0.831,-0.935 1.662,-0.841 1.662,-0.841 l 0.332,0.041 c 0.301,0.031 0.81,0.447 0.81,0.447 l 8.837,4.288 c 0.322,0.354 0.249,1.028 0.249,1.028 l 0.094,0.052 c 0.384,-0.425 0.851,-0.373 0.851,-0.373 l 0.82,0.467 0.187,0.166 14.954,-26.407 3.884,2.492 0.072,0.208 0.332,0.218 c 0.81,-0.104 0.873,0.774 0.873,0.774 l 0.28,0.317 0.187,0 3.603,2.388 -0.051,0.241 -0.167,0.357 -13.832,26.305 0.125,0.344 0.208,0.203 c 0.675,-0.27 1.142,-0.179 1.142,-0.179 0.135,-0.26 0.312,-0.323 0.312,-0.323 l 0.301,0.072 1.993,0.986 0.945,-1.817 -0.831,-0.769 2.056,-3.728 0,-0.176 1.948,-3.697 -0.052,-0.104 1.97,-3.645 2.715,2.96 -1.811,3.447 0.082,0.115 -1.818,3.219 -1.984,3.956 -1.111,-0.727 -0.842,1.852 0.925,0.72 0.103,0 0.229,-0.222 0.789,0.295 0.068,-0.175 2.789,1.32 0,0.27 1.043,0.447 0.47,-0.156 1.273,0.613 0.33,0.955 0.233,0.146 0.22,0.031 c 0,0.363 -0.228,0.612 -0.228,0.612 l 0.209,0.551 c 0.851,0.259 1.215,0.727 1.215,0.727 1.724,-0.239 2.077,0.945 2.077,0.945 l 0.312,0.176 0.29,-0.114 0.893,0.249 0.426,-0.093 0.27,-0.146 0.81,0.426 0.073,0.114 1.381,0.738 0.156,-0.416 -0.187,-0.166 -0.551,-0.405 0.011,-0.436 0.696,-1.433 0.176,-0.052 1.807,-3.915 -0.125,-0.114 1.766,-3.863 0.114,-0.156 1.796,-3.894 -0.197,-0.125 1.713,-3.738 1.984,2.71 -1.61,3.541 0.063,0.115 -1.838,3.922 -1.693,3.716 -0.104,0 -0.893,1 -0.073,0 -0.965,2.119 -0.239,0.063 -0.686,1.464 -0.114,0.094 -0.457,-0.249 -0.166,0.405 1.973,0.981 c 1.101,-0.187 1.88,0.127 1.88,0.127 0.332,-0.041 0.633,0.136 0.633,0.136 l 3.749,1.912 0.114,0.083 1.932,0.987 c 0.114,-0.893 0.893,-0.987 0.893,-0.987 l 0.924,0.623 c 0.124,0.873 -0.686,1.319 -0.686,1.319" />
    </g>
  </g>
</svg>
